<?xml version="1.0" standalone="no"?>
<!DOCTYPE svg PUBLIC "-//W3C//DTD SVG 20010904//EN"
 "http://www.w3.org/TR/2001/REC-SVG-20010904/DTD/svg10.dtd">
<svg version="1.0" xmlns="http://www.w3.org/2000/svg"
 width="370.000000pt" height="370.000000pt" viewBox="0 0 370.000000 370.000000"
 preserveAspectRatio="xMidYMid meet">

<g transform="translate(0.000000,370.000000) scale(0.100000,-0.100000)"
fill="#000000" stroke="none">
<path d="M1641 3669 c-426 -45 -848 -259 -1144 -580 -241 -261 -396 -579 -463
-944 -25 -140 -25 -460 0 -600 95 -521 369 -942 801 -1231 604 -402 1406 -402
2010 0 432 289 707 711 801 1231 25 140 25 460 0 600 -94 519 -369 942 -801
1230 -350 234 -777 338 -1204 294z m409 -123 c363 -44 709 -204 962 -447 77
-74 79 -77 28 -41 -192 138 -367 157 -630 67 -86 -29 -243 -105 -280 -136
l-25 -21 25 7 c182 45 420 57 580 30 238 -39 437 -134 598 -284 39 -37 119
-201 162 -332 62 -187 94 -412 84 -582 -7 -135 -36 -329 -43 -298 -7 28 -1 38
-95 -160 l-55 -116 -51 -7 c-28 -4 -165 -6 -304 -5 -219 1 -258 -1 -286 -16
-17 -9 -34 -15 -36 -12 -3 2 18 14 46 26 159 68 350 221 444 356 65 92 65 94
-4 32 -146 -132 -344 -239 -571 -307 -161 -48 -345 -87 -449 -94 l-75 -5 80
12 c70 10 29 12 -320 12 -220 0 -382 -3 -360 -6 27 -4 32 -7 14 -8 -59 -3
-300 53 -479 111 -186 61 -372 166 -499 284 l-64 59 24 -44 c32 -58 185 -219
268 -281 36 -28 111 -73 166 -100 100 -50 121 -64 49 -34 -31 13 -78 16 -275
15 -131 -1 -261 1 -289 5 l-51 7 -55 116 c-94 198 -88 188 -95 160 -7 -31 -36
163 -43 298 -10 171 22 393 84 585 17 51 60 153 96 225 61 124 70 136 127 179
120 90 239 145 408 189 187 49 467 45 679 -10 l25 -7 -25 21 c-44 37 -197 109
-313 147 -185 61 -349 57 -490 -11 l-52 -26 49 43 c352 310 842 460 1316 404z
m-1853 -2088 c-3 -8 -6 -5 -6 6 -1 11 2 17 5 13 3 -3 4 -12 1 -19z m3310 0
c-3 -8 -6 -5 -6 6 -1 11 2 17 5 13 3 -3 4 -12 1 -19z m-1924 -255 c-13 -2 -33
-2 -45 0 -13 2 -3 4 22 4 25 0 35 -2 23 -4z m124 -10 c-20 -2 -52 -2 -70 0
-17 2 0 4 38 4 39 0 53 -2 32 -4z m326 0 c-18 -2 -48 -2 -65 0 -18 2 -4 4 32
4 36 0 50 -2 33 -4z m-175 -10 c-10 -2 -26 -2 -35 0 -10 3 -2 5 17 5 19 0 27
-2 18 -5z m802 -3 c-8 -5 -19 -10 -25 -10 -5 0 -3 5 5 10 8 5 20 10 25 10 6 0
3 -5 -5 -10z"/>
<path d="M935 2566 c-116 -37 -207 -116 -258 -223 -40 -87 -49 -210 -22 -294
97 -300 472 -391 694 -169 219 219 121 595 -178 684 -64 19 -180 20 -236 2z
m25 -151 c42 -21 63 -68 57 -122 -14 -125 -178 -150 -232 -36 -20 42 -14 89
17 128 36 46 103 58 158 30z"/>
<path d="M2525 2571 c-253 -66 -387 -349 -274 -579 154 -314 602 -311 752 6
30 62 32 75 32 172 0 99 -2 109 -33 173 -42 86 -113 156 -198 198 -59 29 -78
33 -158 36 -50 1 -104 -1 -121 -6z m4 -155 c40 -21 61 -59 61 -110 0 -55 -35
-101 -90 -117 -73 -22 -153 41 -152 119 1 52 15 78 55 102 38 24 87 26 126 6z"/>
<path d="M1398 1233 c6 -2 18 -2 25 0 6 3 1 5 -13 5 -14 0 -19 -2 -12 -5z"/>
<path d="M2258 1233 c6 -2 18 -2 25 0 6 3 1 5 -13 5 -14 0 -19 -2 -12 -5z"/>
</g>
</svg>
