<?xml version="1.0" standalone="no"?>
<!DOCTYPE svg PUBLIC "-//W3C//DTD SVG 20010904//EN"
 "http://www.w3.org/TR/2001/REC-SVG-20010904/DTD/svg10.dtd">
<svg version="1.0" xmlns="http://www.w3.org/2000/svg"
 width="370.000000pt" height="370.000000pt" viewBox="0 0 370.000000 370.000000"
 preserveAspectRatio="xMidYMid meet">

<g transform="translate(0.000000,370.000000) scale(0.100000,-0.100000)"
fill="#000000" stroke="none">
<path d="M0 1850 l0 -1850 1850 0 1850 0 0 1850 0 1850 -1850 0 -1850 0 0
-1850z m1189 1538 c27 -57 64 -126 81 -155 l31 -52 -53 -27 c-65 -33 -176
-107 -242 -162 -28 -23 -51 -40 -53 -38 -7 6 28 212 47 284 23 83 66 174 105
221 15 17 28 31 30 31 2 0 26 -46 54 -102z m1436 -23 c48 -100 95 -303 95
-410 l0 -37 -56 52 c-63 56 -259 190 -281 190 -21 0 -16 17 34 98 41 68 87
161 107 216 6 18 9 17 37 -10 17 -16 46 -60 64 -99z m-2180 -197 c26 -46 71
-114 100 -153 53 -69 188 -210 219 -227 9 -5 16 -13 16 -17 0 -4 -30 -52 -66
-106 -89 -134 -157 -273 -209 -427 -24 -72 -45 -132 -48 -134 -7 -8 -94 189
-121 273 -87 279 -99 597 -35 913 11 52 22 102 25 110 3 8 19 -21 38 -68 18
-45 55 -119 81 -164z m2950 -18 c24 -165 16 -461 -15 -605 -29 -138 -72 -261
-132 -385 -45 -91 -52 -101 -59 -80 -73 252 -164 455 -265 596 l-55 77 38 31
c187 153 325 349 428 611 10 26 37 -83 60 -245z m-2163 -1208 c83 -67 224
-158 270 -174 41 -14 35 -26 -19 -35 -158 -27 -516 27 -678 102 -85 39 -108
60 -130 120 -15 37 -17 64 -12 143 6 99 24 174 37 152 7 -12 80 53 80 72 0 6
6 6 14 -1 12 -10 14 -7 11 14 -2 22 31 -7 174 -152 97 -99 211 -207 253 -241z
m1603 407 c-8 -13 52 -72 65 -64 6 3 10 0 10 -8 0 -8 7 -20 15 -27 13 -11 14
-10 9 6 -5 15 -3 15 10 -3 24 -32 49 -168 41 -228 -8 -64 -39 -130 -75 -155
-57 -41 -179 -80 -341 -109 -232 -42 -268 -45 -375 -31 l-95 13 75 41 c158 86
255 164 461 373 110 111 201 202 203 202 2 1 0 -4 -3 -10z m-2615 -444 c58 -8
125 -15 150 -15 l45 0 0 -242 c0 -193 4 -263 18 -341 10 -54 17 -100 15 -103
-3 -2 -39 31 -82 74 -184 185 -290 386 -312 591 l-7 64 34 -7 c19 -4 81 -13
139 -21z m3400 -12 c-1 -117 -67 -296 -161 -434 -57 -84 -247 -289 -267 -289
-5 0 0 38 9 85 28 136 43 336 35 469 -4 67 -9 130 -12 142 -5 20 -1 21 108 28
62 4 145 13 183 20 108 21 105 21 105 -21z m-2520 -341 c41 -20 40 -19 29
-179 -10 -131 -27 -183 -61 -183 -31 1 -47 14 -107 93 -64 85 -91 137 -91 176
0 25 8 35 46 57 50 29 110 53 134 53 8 0 31 -8 50 -17z m1645 -26 c52 -27 60
-35 63 -63 4 -39 -22 -90 -89 -180 -60 -79 -76 -92 -107 -93 -35 0 -54 56 -61
186 -8 148 -5 164 39 180 45 16 80 9 155 -30z m-1478 -41 c37 -13 87 -29 111
-35 l42 -11 0 -72 c0 -92 -15 -143 -50 -179 -23 -23 -37 -28 -75 -28 -40 0
-52 5 -80 33 -31 31 -33 38 -40 130 -8 99 0 187 15 187 5 0 39 -11 77 -25z
m1237 -6 c8 -43 7 -153 -3 -213 -11 -67 -53 -106 -114 -106 -84 0 -118 50
-125 187 l-5 92 29 6 c16 4 65 19 109 35 44 15 85 29 91 29 6 1 14 -13 18 -30z
m-875 -94 c51 -14 114 -25 139 -25 l45 0 -6 -80 c-9 -138 -63 -200 -172 -200
-63 0 -114 25 -139 70 -17 28 -21 52 -20 125 1 121 8 149 37 141 12 -4 64 -18
116 -31z m574 -41 c21 -180 -30 -264 -158 -264 -116 0 -175 77 -175 229 l0 51
48 0 c26 1 94 14 152 29 58 16 110 28 115 26 6 -1 14 -33 18 -71z m-834 -505
c39 -14 61 -54 61 -112 0 -41 -2 -45 -37 -61 -38 -16 -230 -76 -247 -76 -16 0
2 109 28 165 38 85 108 114 195 84z m346 -4 c37 -15 55 -46 55 -96 l0 -29 -79
0 c-43 0 -99 -3 -125 -6 -44 -6 -46 -6 -46 17 1 38 37 109 62 119 35 13 95 12
133 -5z m374 -1 c27 -19 51 -71 51 -110 0 -25 -2 -26 -37 -20 -21 3 -77 6
-125 6 -86 0 -88 1 -88 24 0 46 22 88 54 102 43 18 117 17 145 -2z m341 -7
c19 -12 42 -36 52 -54 19 -31 53 -172 44 -180 -7 -8 -247 65 -274 83 -22 14
-24 21 -20 65 5 51 27 85 63 100 39 16 101 10 135 -14z m-1391 -41 c25 -40 50
-191 34 -207 -13 -13 -251 -62 -269 -55 -33 13 -4 145 46 215 38 52 84 81 132
81 31 0 40 -5 57 -34z m1746 -19 c33 -34 58 -71 68 -102 17 -49 23 -145 10
-145 -15 0 -168 29 -222 41 l-54 13 6 81 c7 120 35 165 100 165 36 0 47 -6 92
-53z"/>
</g>
</svg>
